<?xml version="1.0" encoding="utf-8"?>
<svg version="1.1" xmlns:xlink="http://www.w3.org/1999/xlink" width="370px" height="406px" xmlns="http://www.w3.org/2000/svg">
  <defs>
    <mask fill="white" id="clip195">
      <path d="M 5.93582887700535 403  C 6 403  1.19932482896664 395.7777017478  2 388.598  L 2 310.48  C 2.53014764765854 301.089088344903  0.618894509418453 224.589607096899  0.523705776056204 186.015982604076  C 0.522021952217926 185.333641468156  0.520906396715674 184.663167787735  0.520387107367952 184.005142949371  C 0.511249871428248 172.426765251916  0.686720844602206 164.702636902892  1.19932482896664 164  L 137.676410838586 164  C 137.676410838586 163  126.216502853046 164  137.676410838586 164  C 149.136318824127 164  160.856910615792 164.577578549403  178.306993696412 164  C 208.519478385565 163  232.274951983847 164  246.024631792788 164  C 271.028067397604 164  299.826365593974 163.921612964067  300.198742269889 164  L 370 0  L 311.65865025543 164  C 313.746441134834 166.352054318932  311.65865025543 307.389985286045  311 310.48  L 311 365  C 311 365  312 398  311.65865025543 403  C 311.317300510859 408  15.9358288770053 404  5.93582887700535 403  Z " fill-rule="evenodd" />
    </mask>
  </defs>
  <g transform="matrix(1 0 0 1 -225 -123 )">
    <path d="M 5.93582887700535 403  C 6 403  1.19932482896664 395.7777017478  2 388.598  L 2 310.48  C 2.53014764765854 301.089088344903  0.618894509418453 224.589607096899  0.523705776056204 186.015982604076  C 0.522021952217926 185.333641468156  0.520906396715674 184.663167787735  0.520387107367952 184.005142949371  C 0.511249871428248 172.426765251916  0.686720844602206 164.702636902892  1.19932482896664 164  L 137.676410838586 164  C 137.676410838586 163  126.216502853046 164  137.676410838586 164  C 149.136318824127 164  160.856910615792 164.577578549403  178.306993696412 164  C 208.519478385565 163  232.274951983847 164  246.024631792788 164  C 271.028067397604 164  299.826365593974 163.921612964067  300.198742269889 164  L 370 0  L 311.65865025543 164  C 313.746441134834 166.352054318932  311.65865025543 307.389985286045  311 310.48  L 311 365  C 311 365  312 398  311.65865025543 403  C 311.317300510859 408  15.9358288770053 404  5.93582887700535 403  Z " fill-rule="nonzero" fill="#ffffff" stroke="none" transform="matrix(1 0 0 1 225 123 )" />
    <path d="M 5.93582887700535 403  C 6 403  1.19932482896664 395.7777017478  2 388.598  L 2 310.48  C 2.53014764765854 301.089088344903  0.618894509418453 224.589607096899  0.523705776056204 186.015982604076  C 0.522021952217926 185.333641468156  0.520906396715674 184.663167787735  0.520387107367952 184.005142949371  C 0.511249871428248 172.426765251916  0.686720844602206 164.702636902892  1.19932482896664 164  L 137.676410838586 164  C 137.676410838586 163  126.216502853046 164  137.676410838586 164  C 149.136318824127 164  160.856910615792 164.577578549403  178.306993696412 164  C 208.519478385565 163  232.274951983847 164  246.024631792788 164  C 271.028067397604 164  299.826365593974 163.921612964067  300.198742269889 164  L 370 0  L 311.65865025543 164  C 313.746441134834 166.352054318932  311.65865025543 307.389985286045  311 310.48  L 311 365  C 311 365  312 398  311.65865025543 403  C 311.317300510859 408  15.9358288770053 404  5.93582887700535 403  Z " stroke-width="2" stroke="#797979" fill="none" transform="matrix(1 0 0 1 225 123 )" mask="url(#clip195)" />
  </g>
</svg>