<?xml version="1.0" encoding="utf-8"?>
<svg version="1.1" xmlns:xlink="http://www.w3.org/1999/xlink" width="477px" height="114px" xmlns="http://www.w3.org/2000/svg">
  <defs>
    <mask fill="white" id="clip1">
      <path d="M 71 61  L 0 114  L 145.506666666667 10.9615384615385  L 254.578666666667 0  L 361 10.9615384615385  L 470 89  L 477 95  L 460.96 77.9487179487179  L 355.096 10.9615384615385  L 238.538666666667 0  L 145.506666666667 10.9615384615385  L 71 61  Z " fill-rule="evenodd" />
    </mask>
  </defs>
  <g transform="matrix(1 0 0 1 -76 -82 )">
    <path d="M 71 61  L 0 114  L 145.506666666667 10.9615384615385  L 254.578666666667 0  L 361 10.9615384615385  L 470 89  L 477 95  L 460.96 77.9487179487179  L 355.096 10.9615384615385  L 238.538666666667 0  L 145.506666666667 10.9615384615385  L 71 61  Z " fill-rule="nonzero" fill="#ffffff" stroke="none" transform="matrix(1 0 0 1 76 82 )" />
    <path d="M 71 61  L 0 114  L 145.506666666667 10.9615384615385  L 254.578666666667 0  L 361 10.9615384615385  L 470 89  L 477 95  L 460.96 77.9487179487179  L 355.096 10.9615384615385  L 238.538666666667 0  L 145.506666666667 10.9615384615385  L 71 61  Z " stroke-width="2" stroke-dasharray="9,4" stroke="#797979" fill="none" transform="matrix(1 0 0 1 76 82 )" mask="url(#clip1)" />
  </g>
</svg>