<?xml version="1.0" encoding="utf-8"?>
<svg version="1.1" xmlns:xlink="http://www.w3.org/1999/xlink" width="190px" height="193px" xmlns="http://www.w3.org/2000/svg">
  <g transform="matrix(1 0 0 1 -500 -469 )">
    <path d="M 500.5 661.38908045977  C 500.5 661.38908045977  500.5 633.66091954023  500.5 633.66091954023  C 500.5 633.66091954023  607.767777074084 633.66091954023  607.767777074084 633.66091954023  C 607.767777074084 633.66091954023  621.424002690805 477.226100697194  621.424002690805 477.226100697194  C 621.424002690805 477.226100697194  626.826493275378 633.66091954023  626.826493275378 633.66091954023  C 626.826493275378 633.66091954023  689.5 633.66091954023  689.5 633.66091954023  C 689.5 633.66091954023  689.5 661.38908045977  689.5 661.38908045977  C 689.5 661.38908045977  500.5 661.38908045977  500.5 661.38908045977  Z " fill-rule="nonzero" fill="#ffffff" stroke="none" />
    <path d="M 500 661.88908045977  C 500 661.88908045977  500 633.16091954023  500 633.16091954023  C 500 633.16091954023  607.309523809524 633.16091954023  607.309523809524 633.16091954023  C 607.309523809524 633.16091954023  621.640211640212 469  621.640211640212 469  C 621.640211640212 469  627.309523809524 633.16091954023  627.309523809524 633.16091954023  C 627.309523809524 633.16091954023  690 633.16091954023  690 633.16091954023  C 690 633.16091954023  690 661.88908045977  690 661.88908045977  C 690 661.88908045977  500 661.88908045977  500 661.88908045977  Z M 501 660.88908045977  C 501 660.88908045977  689 660.88908045977  689 660.88908045977  C 689 660.88908045977  689 634.16091954023  689 634.16091954023  C 689 634.16091954023  626.343462741232 634.16091954023  626.343462741232 634.16091954023  C 626.343462741232 634.16091954023  621.207793741398 485.452201394389  621.207793741398 485.452201394389  C 621.207793741398 485.452201394389  608.226030338644 634.16091954023  608.226030338644 634.16091954023  C 608.226030338644 634.16091954023  501 634.16091954023  501 634.16091954023  C 501 634.16091954023  501 660.88908045977  501 660.88908045977  Z " fill-rule="nonzero" fill="#797979" stroke="none" />
  </g>
</svg>