<?xml version="1.0" encoding="utf-8"?>
<svg version="1.1" xmlns:xlink="http://www.w3.org/1999/xlink" width="204px" height="115px" xmlns="http://www.w3.org/2000/svg">
  <g transform="matrix(1 0 0 1 -664 -598 )">
    <path d="M 664.5 711.8  C 664.5 711.8  664.5 671.5  664.5 671.5  C 664.5 671.5  756.519657109464 671.5  756.519657109464 671.5  C 756.519657109464 671.5  739.66594902179 602.716879627384  739.66594902179 602.716879627384  C 739.66594902179 602.716879627384  775.579364466179 671.5  775.579364466179 671.5  C 775.579364466179 671.5  867.5 671.5  867.5 671.5  C 867.5 671.5  867.5 711.8  867.5 711.8  C 867.5 711.8  664.5 711.8  664.5 711.8  Z " fill-rule="nonzero" fill="#ffffff" stroke="none" />
    <path d="M 664 712.3  C 664 712.3  664 671  664 671  C 664 671  755.882352941176 671  755.882352941176 671  C 755.882352941176 671  738.197183098591 598.823529411765  738.197183098591 598.823529411765  C 738.197183098591 598.823529411765  775.882352941176 671  775.882352941176 671  C 775.882352941176 671  868 671  868 671  C 868 671  868 712.3  868 712.3  C 868 712.3  664 712.3  664 712.3  Z M 665 711.3  C 665 711.3  867 711.3  867 711.3  C 867 711.3  867 672  867 672  C 867 672  775.276375991181 672  775.276375991181 672  C 775.276375991181 672  741.134714944989 606.610229843004  741.134714944989 606.610229843004  C 741.134714944989 606.610229843004  757.156961277751 672  757.156961277751 672  C 757.156961277751 672  665 672  665 672  C 665 672  665 711.3  665 711.3  Z " fill-rule="nonzero" fill="#797979" stroke="none" />
  </g>
</svg>