<?xml version="1.0" encoding="utf-8"?>
<svg version="1.1" xmlns:xlink="http://www.w3.org/1999/xlink" width="370px" height="340px" xmlns="http://www.w3.org/2000/svg">
  <defs>
    <mask fill="white" id="clip122">
      <path d="M 5.93582887700535 337.487684729064  C 6 337.487684729064  1.19932482896664 331.439454665646  2 325.426896551724  L 2 260.007881773399  C 2.53014764765854 252.143571520362  0.618894509418453 188.079966534349  0.523705776056204 155.776931244793  C 0.522021952217926 155.205512559539  0.520906396715674 154.644032137512  0.520387107367952 154.092976854153  C 0.511249871428248 144.396798486826  0.686720844602206 137.928316618186  1.19932482896664 138  L 137.676410838586 138  C 137.676410838586 136.502463054187  126.216502853046 137.339901477833  137.676410838586 137.339901477833  C 149.136318824127 137.339901477833  160.856910615792 137.823587947776  178.306993696412 137.339901477833  C 208.519478385565 136.502463054187  232.274951983847 137.339901477833  246.024631792788 137.339901477833  C 271.028067397604 137.339901477833  299.826365593974 137.274257162027  300.198742269889 137.339901477833  L 370 0  L 311.65865025543 137.339901477833  C 313.746441134834 139.309602139007  311.65865025543 257.420184722304  311 260.007881773399  L 311 305.665024630542  C 311 305.665024630542  312 333.300492610837  311.65865025543 337.487684729064  C 311.317300510859 341.674876847291  15.9358288770053 338.325123152709  5.93582887700535 337.487684729064  Z " fill-rule="evenodd" />
    </mask>
  </defs>
  <g transform="matrix(1 0 0 1 -225 -189 )">
    <path d="M 5.93582887700535 337.487684729064  C 6 337.487684729064  1.19932482896664 331.439454665646  2 325.426896551724  L 2 260.007881773399  C 2.53014764765854 252.143571520362  0.618894509418453 188.079966534349  0.523705776056204 155.776931244793  C 0.522021952217926 155.205512559539  0.520906396715674 154.644032137512  0.520387107367952 154.092976854153  C 0.511249871428248 144.396798486826  0.686720844602206 137.928316618186  1.19932482896664 138  L 137.676410838586 138  C 137.676410838586 136.502463054187  126.216502853046 137.339901477833  137.676410838586 137.339901477833  C 149.136318824127 137.339901477833  160.856910615792 137.823587947776  178.306993696412 137.339901477833  C 208.519478385565 136.502463054187  232.274951983847 137.339901477833  246.024631792788 137.339901477833  C 271.028067397604 137.339901477833  299.826365593974 137.274257162027  300.198742269889 137.339901477833  L 370 0  L 311.65865025543 137.339901477833  C 313.746441134834 139.309602139007  311.65865025543 257.420184722304  311 260.007881773399  L 311 305.665024630542  C 311 305.665024630542  312 333.300492610837  311.65865025543 337.487684729064  C 311.317300510859 341.674876847291  15.9358288770053 338.325123152709  5.93582887700535 337.487684729064  Z " fill-rule="nonzero" fill="#ffffff" stroke="none" transform="matrix(1 0 0 1 225 189 )" />
    <path d="M 5.93582887700535 337.487684729064  C 6 337.487684729064  1.19932482896664 331.439454665646  2 325.426896551724  L 2 260.007881773399  C 2.53014764765854 252.143571520362  0.618894509418453 188.079966534349  0.523705776056204 155.776931244793  C 0.522021952217926 155.205512559539  0.520906396715674 154.644032137512  0.520387107367952 154.092976854153  C 0.511249871428248 144.396798486826  0.686720844602206 137.928316618186  1.19932482896664 138  L 137.676410838586 138  C 137.676410838586 136.502463054187  126.216502853046 137.339901477833  137.676410838586 137.339901477833  C 149.136318824127 137.339901477833  160.856910615792 137.823587947776  178.306993696412 137.339901477833  C 208.519478385565 136.502463054187  232.274951983847 137.339901477833  246.024631792788 137.339901477833  C 271.028067397604 137.339901477833  299.826365593974 137.274257162027  300.198742269889 137.339901477833  L 370 0  L 311.65865025543 137.339901477833  C 313.746441134834 139.309602139007  311.65865025543 257.420184722304  311 260.007881773399  L 311 305.665024630542  C 311 305.665024630542  312 333.300492610837  311.65865025543 337.487684729064  C 311.317300510859 341.674876847291  15.9358288770053 338.325123152709  5.93582887700535 337.487684729064  Z " stroke-width="2" stroke="#797979" fill="none" transform="matrix(1 0 0 1 225 189 )" mask="url(#clip122)" />
  </g>
</svg>