<?xml version="1.0" encoding="utf-8"?>
<svg version="1.1" xmlns:xlink="http://www.w3.org/1999/xlink" width="266px" height="19px" xmlns="http://www.w3.org/2000/svg">
  <defs>
    <mask fill="white" id="clip21">
      <path d="M 0 19  L 0 0  L 39.7014925373134 0  L 163.34328358209 0  L 266 0  L 266 19  L 0 19  Z " fill-rule="evenodd" />
    </mask>
  </defs>
  <g transform="matrix(1 0 0 1 -234 -144 )">
    <path d="M 0 19  L 0 0  L 39.7014925373134 0  L 163.34328358209 0  L 266 0  L 266 19  L 0 19  Z " fill-rule="nonzero" fill="#d7d7d7" stroke="none" transform="matrix(1 0 0 1 234 144 )" />
    <path d="M 0 19  L 0 0  L 39.7014925373134 0  L 163.34328358209 0  L 266 0  L 266 19  L 0 19  Z " stroke-width="2" stroke="#797979" fill="none" transform="matrix(1 0 0 1 234 144 )" mask="url(#clip21)" />
  </g>
</svg>