<?xml version="1.0" encoding="utf-8"?>
<svg version="1.1" xmlns:xlink="http://www.w3.org/1999/xlink" width="567px" height="19px" xmlns="http://www.w3.org/2000/svg">
  <defs>
    <mask fill="white" id="clip2">
      <path d="M 0 19  L 0 0  L 84.6268656716418 0  L 348.179104477612 0  L 567 0  L 567 19  L 0 19  Z " fill-rule="evenodd" />
    </mask>
  </defs>
  <g transform="matrix(1 0 0 1 -234 -144 )">
    <path d="M 0 19  L 0 0  L 84.6268656716418 0  L 348.179104477612 0  L 567 0  L 567 19  L 0 19  Z " fill-rule="nonzero" fill="#d7d7d7" stroke="none" transform="matrix(1 0 0 1 234 144 )" />
    <path d="M 0 19  L 0 0  L 84.6268656716418 0  L 348.179104477612 0  L 567 0  L 567 19  L 0 19  Z " stroke-width="2" stroke="#797979" fill="none" transform="matrix(1 0 0 1 234 144 )" mask="url(#clip2)" />
  </g>
</svg>