<?xml version="1.0" encoding="utf-8"?>
<svg version="1.1" xmlns:xlink="http://www.w3.org/1999/xlink" width="137px" height="192px" xmlns="http://www.w3.org/2000/svg">
  <defs>
    <mask fill="white" id="clip2">
      <path d="M 0 167.661971830986  L 0 24.3380281690141  C 0 10.7087323943661  3.96000000000004 0  9 0  L 128 0  C 133.04 0  137 10.7087323943661  137 24.3380281690141  L 137 167.661971830986  C 137 181.291267605634  133.04 192  128 192  L 9 192  C 3.96000000000004 192  0 181.291267605634  0 167.661971830986  Z " fill-rule="evenodd" />
    </mask>
  </defs>
  <g transform="matrix(1 0 0 1 -587 -87 )">
    <path d="M 0 167.661971830986  L 0 24.3380281690141  C 0 10.7087323943661  3.96000000000004 0  9 0  L 128 0  C 133.04 0  137 10.7087323943661  137 24.3380281690141  L 137 167.661971830986  C 137 181.291267605634  133.04 192  128 192  L 9 192  C 3.96000000000004 192  0 181.291267605634  0 167.661971830986  Z " fill-rule="nonzero" fill="#ffff80" stroke="none" transform="matrix(1 0 0 1 587 87 )" />
    <path d="M 0 167.661971830986  L 0 24.3380281690141  C 0 10.7087323943661  3.96000000000004 0  9 0  L 128 0  C 133.04 0  137 10.7087323943661  137 24.3380281690141  L 137 167.661971830986  C 137 181.291267605634  133.04 192  128 192  L 9 192  C 3.96000000000004 192  0 181.291267605634  0 167.661971830986  Z " stroke-width="2" stroke="#797979" fill="none" transform="matrix(1 0 0 1 587 87 )" mask="url(#clip2)" />
  </g>
</svg>