<?xml version="1.0" encoding="utf-8"?>
<svg version="1.1" xmlns:xlink="http://www.w3.org/1999/xlink" width="137px" height="67px" xmlns="http://www.w3.org/2000/svg">
  <defs>
    <mask fill="white" id="clip123">
      <path d="M 0 56.3650793650794  L 0 10.6349206349206  C 0 4.67936507936508  4.4 0  10 0  L 127 0  C 132.6 0  137 4.67936507936508  137 10.6349206349206  L 137 56.3650793650794  C 137 62.3206349206349  132.6 67  127 67  L 51 67  L 10 67  C 4.4 67  0 62.3206349206349  0 56.3650793650794  Z " fill-rule="evenodd" />
    </mask>
  </defs>
  <g transform="matrix(1 0 0 1 -35 -120 )">
    <path d="M 0 56.3650793650794  L 0 10.6349206349206  C 0 4.67936507936508  4.4 0  10 0  L 127 0  C 132.6 0  137 4.67936507936508  137 10.6349206349206  L 137 56.3650793650794  C 137 62.3206349206349  132.6 67  127 67  L 51 67  L 10 67  C 4.4 67  0 62.3206349206349  0 56.3650793650794  Z " fill-rule="nonzero" fill="#ffff80" stroke="none" transform="matrix(1 0 0 1 35 120 )" />
    <path d="M 0 56.3650793650794  L 0 10.6349206349206  C 0 4.67936507936508  4.4 0  10 0  L 127 0  C 132.6 0  137 4.67936507936508  137 10.6349206349206  L 137 56.3650793650794  C 137 62.3206349206349  132.6 67  127 67  L 51 67  L 10 67  C 4.4 67  0 62.3206349206349  0 56.3650793650794  Z " stroke-width="2" stroke="#797979" fill="none" transform="matrix(1 0 0 1 35 120 )" mask="url(#clip123)" />
  </g>
</svg>