<?xml version="1.0" encoding="utf-8"?>
<svg version="1.1" xmlns:xlink="http://www.w3.org/1999/xlink" width="151px" height="183px" xmlns="http://www.w3.org/2000/svg">
  <g transform="matrix(1 0 0 1 -28 -112 )">
    <path d="M 29 120  A 7 7 0 0 1 36 113 L 171 113  A 7 7 0 0 1 178 120 L 178 287  A 7 7 0 0 1 171 294 L 36 294  A 7 7 0 0 1 29 287 L 29 120  Z " fill-rule="nonzero" fill="#d7d7d7" stroke="none" />
    <path d="M 28.5 120  A 7.5 7.5 0 0 1 36 112.5 L 171 112.5  A 7.5 7.5 0 0 1 178.5 120 L 178.5 287  A 7.5 7.5 0 0 1 171 294.5 L 36 294.5  A 7.5 7.5 0 0 1 28.5 287 L 28.5 120  Z " stroke-width="1" stroke-dasharray="3,1" stroke="#797979" fill="none" stroke-dashoffset="0.5" />
  </g>
</svg>