<?xml version="1.0" encoding="utf-8"?>
<svg version="1.1" xmlns:xlink="http://www.w3.org/1999/xlink" width="370px" height="359px" xmlns="http://www.w3.org/2000/svg">
  <defs>
    <mask fill="white" id="clip173">
      <path d="M 5.93582887700535 356.347290640394  C 6 356.347290640394  1.19932482896664 349.961071249902  2 343.612517241379  L 2 274.537733990148  C 2.53014764765854 266.233947575912  0.618894509418453 198.590317605386  0.523705776056204 164.482112696708  C 0.522021952217926 163.878761790808  0.520906396715674 163.285904521667  0.520387107367952 162.704054972473  C 0.511249871428248 152.466031343443  0.686720844602206 145.636075488025  1.19932482896664 145  L 137.676410838586 145  C 137.676410838586 144.130541871921  126.216502853046 145.014778325123  137.676410838586 145.014778325123  C 149.136318824127 145.014778325123  160.856910615792 145.525494333093  178.306993696412 145.014778325123  C 208.519478385565 144.130541871921  232.274951983847 145.014778325123  246.024631792788 145.014778325123  C 271.028067397604 145.014778325123  299.826365593974 144.945465650493  300.198742269889 145.014778325123  L 370 0  L 311.65865025543 145.014778325123  C 313.746441134834 147.094550493834  311.65865025543 271.805430339139  311 274.537733990148  L 311 322.746305418719  C 311 322.746305418719  312 351.926108374384  311.65865025543 356.347290640394  C 311.317300510859 360.768472906404  15.9358288770053 357.231527093596  5.93582887700535 356.347290640394  Z " fill-rule="evenodd" />
    </mask>
  </defs>
  <g transform="matrix(1 0 0 1 -224 -170 )">
    <path d="M 5.93582887700535 356.347290640394  C 6 356.347290640394  1.19932482896664 349.961071249902  2 343.612517241379  L 2 274.537733990148  C 2.53014764765854 266.233947575912  0.618894509418453 198.590317605386  0.523705776056204 164.482112696708  C 0.522021952217926 163.878761790808  0.520906396715674 163.285904521667  0.520387107367952 162.704054972473  C 0.511249871428248 152.466031343443  0.686720844602206 145.636075488025  1.19932482896664 145  L 137.676410838586 145  C 137.676410838586 144.130541871921  126.216502853046 145.014778325123  137.676410838586 145.014778325123  C 149.136318824127 145.014778325123  160.856910615792 145.525494333093  178.306993696412 145.014778325123  C 208.519478385565 144.130541871921  232.274951983847 145.014778325123  246.024631792788 145.014778325123  C 271.028067397604 145.014778325123  299.826365593974 144.945465650493  300.198742269889 145.014778325123  L 370 0  L 311.65865025543 145.014778325123  C 313.746441134834 147.094550493834  311.65865025543 271.805430339139  311 274.537733990148  L 311 322.746305418719  C 311 322.746305418719  312 351.926108374384  311.65865025543 356.347290640394  C 311.317300510859 360.768472906404  15.9358288770053 357.231527093596  5.93582887700535 356.347290640394  Z " fill-rule="nonzero" fill="#ffffff" stroke="none" transform="matrix(1 0 0 1 224 170 )" />
    <path d="M 5.93582887700535 356.347290640394  C 6 356.347290640394  1.19932482896664 349.961071249902  2 343.612517241379  L 2 274.537733990148  C 2.53014764765854 266.233947575912  0.618894509418453 198.590317605386  0.523705776056204 164.482112696708  C 0.522021952217926 163.878761790808  0.520906396715674 163.285904521667  0.520387107367952 162.704054972473  C 0.511249871428248 152.466031343443  0.686720844602206 145.636075488025  1.19932482896664 145  L 137.676410838586 145  C 137.676410838586 144.130541871921  126.216502853046 145.014778325123  137.676410838586 145.014778325123  C 149.136318824127 145.014778325123  160.856910615792 145.525494333093  178.306993696412 145.014778325123  C 208.519478385565 144.130541871921  232.274951983847 145.014778325123  246.024631792788 145.014778325123  C 271.028067397604 145.014778325123  299.826365593974 144.945465650493  300.198742269889 145.014778325123  L 370 0  L 311.65865025543 145.014778325123  C 313.746441134834 147.094550493834  311.65865025543 271.805430339139  311 274.537733990148  L 311 322.746305418719  C 311 322.746305418719  312 351.926108374384  311.65865025543 356.347290640394  C 311.317300510859 360.768472906404  15.9358288770053 357.231527093596  5.93582887700535 356.347290640394  Z " stroke-width="2" stroke="#797979" fill="none" transform="matrix(1 0 0 1 224 170 )" mask="url(#clip173)" />
  </g>
</svg>